<?xml version="1.0" encoding="utf-8"?>
<!-- Generator: Adobe Illustrator 16.0.3, SVG Export Plug-In . SVG Version: 6.00 Build 0)  -->
<!DOCTYPE svg PUBLIC "-//W3C//DTD SVG 1.1//EN" "http://www.w3.org/Graphics/SVG/1.1/DTD/svg11.dtd">
<svg version="1.1" id="Layer_1" xmlns="http://www.w3.org/2000/svg" xmlns:xlink="http://www.w3.org/1999/xlink" x="0px" y="0px"
	 width="74px" height="76px" viewBox="0 0 74 76" enable-background="new 0 0 74 76" xml:space="preserve">
<path fill="#FFFFFF" d="M1.46,5.78c4.99,8.7,2.82,19.42,7.55,28.2c2.88,5.57,7.91,10.35,14.14,11.799
	c3.86,1.041,7.89,1.221,11.86,1.5c0.43,7.74,0.48,15.5,0.06,23.24C23.77,70.59,13.63,63.23,8.71,53.32
	C1.36,38.73,0.31,21.81,1.46,5.78z"/>
<path fill="#FFFFFF" d="M68.82,20.85c0.34-5.23,1.609-10.35,3.85-15.09c1.311,12.35,0.32,24.979-2.891,36.98
	C67.05,52.3,62.04,62.07,53.01,67.029c-4.199,2.601-9.18,3.261-13.96,4.061c-0.44-7.92-0.39-15.84,0.011-23.76
	c6.649-0.43,14-0.52,19.439-4.92C65.12,37.32,68.141,28.94,68.82,20.85z"/>
<path fill="#FFFFFF" d="M33.46,22.5c4.09-1.38,9.13-0.32,11.83,3.2c3.91,4.73,2.521,12.78-2.95,15.69
	c-4.68,2.799-11.24,1-14.15-3.511C25.01,32.6,27.23,24.35,33.46,22.5z"/>
</svg>
